<svg xmlns="http://www.w3.org/2000/svg" viewBox="0 0 520 130" role="img" aria-label="Local Harvest">
  <g fill="none" stroke="#f7f1e6" stroke-width="2.15" stroke-linecap="round" stroke-linejoin="round">
    <!-- Leaf -->
    <path d="M34 78c-14-4-20 10-16 24 3 10 14 16 26 12 8-3 14-10 14-20 0-8-6-14-14-16" fill="#f7f1e6" fill-opacity="0.12"/>
    <path d="M36 72 L36 96"/>
    <path d="M40 76c8 5 16 5 24 0"/>
    <path d="M42 68c6 3 10 3 16 0"/>
    <path d="M44 60c5 2 8 2 12 0"/>

    <!-- Basket weave -->
    <path d="M58 88c0-22 16-38 34-38s34 16 34 38"/>
    <path d="M62 88h68"/>
    <path d="M66 80c8-4 16-4 24 0"/>
    <path d="M70 72c7-3 14-3 21 0"/>
    <path d="M74 64c6-2 12-2 18 0"/>
    <path d="M78 56c5-1.5 10-1.5 15 0"/>
    <path d="M82 48c4-1 8-1 12 0"/>

    <!-- Handle -->
    <path d="M88 34c-10 0-18 8-20 18"/>
    <path d="M108 34c10 0 18 8 20 18"/>
    <path d="M88 34c12-14 28-14 40 0"/>
    <path d="M124 40l6 4"/>
    <path d="M126 42l3 3"/>
    <path d="M127 43l-2 2"/>
    <path d="M128 44l2 2"/>
  </g>

  <text x="138" y="54" fill="#f7f1e6" font-family="Arial, Helvetica, sans-serif" font-size="36" font-weight="700" letter-spacing="0.1em">LOCAL</text>
  <text x="138" y="98" fill="#f7f1e6" font-family="Arial, Helvetica, sans-serif" font-size="36" font-weight="700" letter-spacing="0.1em">HARVEST</text>
</svg>