<svg xmlns="http://www.w3.org/2000/svg" viewBox="0 0 64 64" role="img" aria-label="Local Harvest">
  <rect width="64" height="64" rx="14" fill="#f7f1e6"/>
  <g fill="none" stroke="#8b9a6b" stroke-width="2.2" stroke-linecap="round" stroke-linejoin="round">
    <path d="M18 38c0-8 6-14 14-14s14 6 14 14"/>
    <path d="M20 38h24"/>
    <path d="M22 34c4-2 8-2 12 0"/>
    <path d="M24 30c3-1.5 6-1.5 9 0"/>
    <path d="M26 26c2.5-1 5-1 7.5 0"/>
    <path d="M32 14c-6 4-8 10-8 16"/>
    <path d="M32 14c6 4 8 10 8 16"/>
    <path d="M28 20c-2 3-2 6 0 9"/>
    <path d="M36 20c2 3 2 6 0 9"/>
    <path d="M24 18 Q32 8 40 18"/>
    <path d="M38 20l4 2"/>
    <path d="M40 22l2 2"/>
  </g>
</svg>